<?xml version="1.0" encoding="utf-8"?>
<!-- Generator: Adobe Illustrator 18.1.1, SVG Export Plug-In . SVG Version: 6.00 Build 0)  -->
<svg version="1.1" id="Слой_1" xmlns="http://www.w3.org/2000/svg" xmlns:xlink="http://www.w3.org/1999/xlink" x="0px" y="0px"
	 viewBox="274.5 420.3 52.1 8.1" enable-background="new 274.5 420.3 52.1 8.1" xml:space="preserve">
<path fill="#FFFFFF" d="M325.2,428.3h-1.6l0.1-0.5c-0.4,0.5-1,0.7-1.7,0.7c-1.3,0-2.2-1-2.2-2.6c0-2,1.3-3.9,2.9-3.9
	c0.7,0,1.2,0.3,1.7,0.8l0.4-2.2h1.8L325.2,428.3z M323.1,423.6c-0.8,0-1.4,0.9-1.4,2.1c0,0.8,0.3,1.2,0.9,1.2c0.9,0,1.4-0.9,1.4-2.1
	C324.1,424.1,323.7,423.6,323.1,423.6z M323.5,428.3L323.5,428.3v0.1V428.3z M318.2,428.4h-1.8l0.1-0.4c0.3-1.9,0.7-3.9,0.9-5.8h1.7
	c0,0.3-0.1,0.6-0.1,0.9c0.6-0.7,1-1.1,1.8-1c-0.2,0.3-0.6,1-0.7,1.8C319,423.8,318.7,424.6,318.2,428.4z M315.8,428.4
	c-0.2,0-1.4,0-1.4,0v-0.6c-0.4,0.5-1.1,0.7-1.9,0.7c-1,0-1.7-0.7-1.7-1.7c0-1.5,1.1-2.4,3.1-2.4c0.2,0,0.4,0,0.8,0
	c0.1-0.2,0.1-0.3,0.1-0.4c0-0.4-0.3-0.6-1.1-0.6c-0.9,0-1.6,0.2-1.9,0.3c0-0.1,0.2-1.4,0.2-1.4c0.9-0.2,1.4-0.3,2.1-0.3
	c1.6,0,2.3,0.6,2.3,1.8c0,0.3,0,0.7-0.1,1.2C316.1,426,315.8,427.9,315.8,428.4z M314.1,425.6c-1.1,0-1.6,0.3-1.6,0.9
	c0,0.4,0.2,0.6,0.7,0.6c0.8,0,1.2-0.6,1.3-1.5C314.3,425.6,314.3,425.6,314.1,425.6z M309.8,422.1c-1.3,0-2.3,1.2-2.3,2.8
	c0,1.1,0.7,1.8,1.7,1.8c0.4,0,0.9-0.1,1.6-0.4l-0.4,1.9c-0.7,0.2-1.1,0.2-1.6,0.2c-1.9,0-3.1-1.3-3.1-3.4c0-2.7,1.7-4.7,4.1-4.7
	c0.8,0,1.7,0.3,2,0.4l-0.3,1.6C310.7,422.2,310.2,422.1,309.8,422.1z M303.3,428.4h-1.8l0.1-0.4c0.3-1.9,0.7-3.9,0.9-5.8h1.7
	c0,0.3-0.1,0.6-0.1,0.9c0.6-0.7,1-1.1,1.8-1c-0.2,0.3-0.6,1-0.7,1.8C304.1,423.8,304,424.6,303.3,428.4z M297.8,425.7
	c-0.1,1,0.6,1.4,1.6,1.4c0.7,0,1.2-0.1,1.9-0.4l-0.3,1.5c-0.7,0.2-1.2,0.2-1.9,0.2c-2,0-3-0.9-3-2.7c0-2.1,1.3-3.8,3.1-3.8
	c1.4,0,2.4,0.9,2.4,2.2c0,0.5-0.1,0.9-0.2,1.5L297.8,425.7L297.8,425.7z M299,423.4c-0.6,0-1,0.4-1.1,1.1h2
	C299.9,424.4,300.1,423.4,299,423.4z M295.8,423.6h-0.9c-0.2,1.2-0.6,2.6-0.6,2.8c0.2,0.3,0.4,0.5,0.8,0.5c0.2,0,0.3,0,0.4-0.1
	l-0.2,1.4c-0.4,0.1-0.9,0.2-1.3,0.2c-0.9,0-1.4-0.5-1.4-1.4c0-0.3,0.1-1,0.2-1.6c0.1-0.6,0.8-4.3,0.8-4.3h1.8l-0.2,0.9h0.9
	L295.8,423.6z M291.1,423.3c-0.6,0-0.9,0.2-0.9,0.5c0.1,0.4,0.2,0.5,1,0.8c0.9,0.4,1.2,0.9,1.2,1.7c0,1.4-0.9,2.1-2.8,2.1
	c-1.1,0-1.4-0.1-1.9-0.2c0-0.1,0.2-1.4,0.2-1.4c0.6,0.2,1.1,0.2,1.7,0.2c0.7,0,1-0.2,1-0.6c0-0.3-0.1-0.4-0.9-0.7
	c-1-0.4-1.3-0.9-1.3-1.7c0-1.1,0.7-2.1,2.7-2.1c0.4,0,1.1,0.1,1.6,0.1l-0.2,1.4C292,423.3,291.6,423.3,291.1,423.3z M287.4,428.3
	c-0.2,0.1-1.4,0.1-1.4,0.1v-0.6c-0.4,0.5-1.1,0.7-1.9,0.7c-1,0-1.7-0.7-1.7-1.7c0-1.5,1.1-2.4,3.1-2.4c0.2,0,0.4,0,0.8,0
	c0.1-0.2,0.1-0.3,0.1-0.4c0-0.4-0.3-0.6-1.1-0.6c-0.9,0-1.6,0.2-1.9,0.3c0-0.1,0.2-1.4,0.2-1.4c0.9-0.2,1.4-0.3,2.1-0.3
	c1.6,0,2.3,0.6,2.3,1.8c0,0.3,0,0.7-0.1,1.2C287.8,425.9,287.5,427.8,287.4,428.3z M285.7,425.6c-1,0-1.6,0.3-1.6,0.9
	c0,0.4,0.2,0.6,0.7,0.6c0.8,0,1.2-0.6,1.3-1.5C285.9,425.6,285.9,425.6,285.7,425.6z M279.9,428.4l1-5.9l-2.3,5.9h-1.2l-0.1-5.9
	l-1.1,5.9h-1.7l1.4-7.7h2.6l0.1,4.8l1.8-4.8h2.8l-1.4,7.7H279.9z"/>
</svg>
